<svg width="40" height="40" viewBox="0 0 40 40" fill="none" xmlns="http://www.w3.org/2000/svg">
<circle cx="20" cy="20" r="20" fill="#59CE8F" fill-opacity="0.17"/>
<path d="M30 12.8501V24.7401C30 25.7101 29.21 26.6001 28.24 26.7201L27.93 26.7601C26.29 26.9801 23.98 27.6601 22.12 28.4401C21.47 28.7101 20.75 28.2201 20.75 27.5101V13.6001C20.75 13.2301 20.96 12.8901 21.29 12.7101C23.12 11.7201 25.89 10.8401 27.77 10.6801H27.83C29.03 10.6801 30 11.6501 30 12.8501ZM18.708 12.7101C16.878 11.7201 14.108 10.8401 12.228 10.6801H12.158C10.958 10.6801 9.98804 11.6501 9.98804 12.8501V24.7401C9.98804 25.7101 10.778 26.6001 11.748 26.7201L12.058 26.7601C13.698 26.9801 16.008 27.6601 17.868 28.4401C18.518 28.7101 19.238 28.2201 19.238 27.5101V13.6001C19.2394 13.4175 19.1907 13.238 19.0973 13.0811C19.0038 12.9242 18.8692 12.7959 18.708 12.7101ZM12.998 15.7401H15.248C15.4469 15.7401 15.6377 15.8191 15.7784 15.9597C15.919 16.1004 15.998 16.2911 15.998 16.4901C15.998 16.689 15.919 16.8797 15.7784 17.0204C15.6377 17.161 15.4469 17.2401 15.248 17.2401H12.998C12.7991 17.2401 12.6084 17.161 12.4677 17.0204C12.3271 16.8797 12.248 16.689 12.248 16.4901C12.248 16.2911 12.3271 16.1004 12.4677 15.9597C12.6084 15.8191 12.7991 15.7401 12.998 15.7401ZM15.998 20.2401H12.998C12.7991 20.2401 12.6084 20.161 12.4677 20.0204C12.3271 19.8797 12.248 19.689 12.248 19.4901C12.248 19.2911 12.3271 19.1004 12.4677 18.9597C12.6084 18.8191 12.7991 18.7401 12.998 18.7401H15.998C16.1969 18.7401 16.3877 18.8191 16.5284 18.9597C16.669 19.1004 16.748 19.2911 16.748 19.4901C16.748 19.689 16.669 19.8797 16.5284 20.0204C16.3877 20.161 16.1969 20.2401 15.998 20.2401Z" fill="#59CE8F"/>
</svg>
