<svg width="198" height="177" viewBox="0 0 198 177" fill="none" xmlns="http://www.w3.org/2000/svg">
<path d="M7.62224 70.8C3.36566 70.8 0 67.791 0 63.9855V43.542C0 19.5585 21.8768 0 48.7031 0H71.5698C75.8264 0 79.1921 3.009 79.1921 6.8145C79.1921 10.62 75.8264 13.629 71.5698 13.629H48.7031C30.192 13.629 15.2445 27.081 15.2445 43.542V63.9855C15.2445 67.791 11.7798 70.8 7.62224 70.8Z" fill="#326BFF"/>
<path d="M190.359 70.8C186.202 70.8 182.737 67.791 182.737 63.9855V43.542C182.737 26.9925 167.69 13.629 149.278 13.629H126.412C122.155 13.629 118.789 10.5315 118.789 6.8145C118.789 3.0975 122.155 0 126.412 0H149.278C176.105 0 197.981 19.5585 197.981 43.542V63.9855C197.981 67.791 194.616 70.8 190.359 70.8Z" fill="#326BFF"/>
<path d="M149.297 176.997H135.537C131.38 176.997 127.915 173.988 127.915 170.183C127.915 166.466 131.281 163.368 135.537 163.368H149.297C167.808 163.368 182.756 149.916 182.756 133.455V121.242C182.756 117.525 186.121 114.428 190.378 114.428C194.535 114.428 198 117.437 198 121.242V133.455C198 157.439 176.123 176.997 149.297 176.997Z" fill="#326BFF"/>
<path d="M71.5698 177H48.7031C21.8768 177 0 157.441 0 133.458V113.014C0 109.209 3.36566 106.2 7.62224 106.2C11.8788 106.2 15.2445 109.209 15.2445 113.014V133.458C15.2445 150.007 30.291 163.371 48.7031 163.371H71.5698C75.7274 163.371 79.1921 166.38 79.1921 170.185C79.1921 173.991 75.8264 177 71.5698 177Z" fill="#326BFF"/>
<path d="M162.933 81.6896H149.47H48.5007H35.038C30.7814 81.6896 27.4158 84.7871 27.4158 88.5041C27.4158 92.2211 30.7814 95.3186 35.038 95.3186H48.5007H149.47H162.933C167.189 95.3186 170.555 92.2211 170.555 88.5041C170.555 84.7871 167.189 81.6896 162.933 81.6896Z" fill="#326BFF"/>
<path d="M48.4895 105.673V108.594C48.4895 123.285 61.7542 135.144 78.1865 135.144H119.762C136.194 135.144 149.459 123.285 149.459 108.594V105.673C149.459 104.611 148.568 103.815 147.38 103.815H50.5683C49.3804 103.815 48.4895 104.611 48.4895 105.673Z" fill="#326BFF"/>
<path d="M48.4895 71.3354V68.4146C48.4895 53.7236 61.7542 41.8646 78.1865 41.8646H119.762C136.194 41.8646 149.459 53.7236 149.459 68.4146V71.3354C149.459 72.3974 148.568 73.1939 147.38 73.1939H50.5683C49.3804 73.1939 48.4895 72.3974 48.4895 71.3354Z" fill="#326BFF"/>
</svg>
