<svg width="31" height="31" viewBox="0 0 31 31" fill="none" xmlns="http://www.w3.org/2000/svg">
<path d="M29.255 10.9504V20.1377C29.255 21.642 28.355 23.039 26.9 23.8046L17.99 28.4117C16.535 29.1639 14.735 29.1639 13.265 28.4117L4.355 23.8046C2.9 23.0524 2 21.6555 2 20.1377V10.9504C2 9.446 2.9 8.04903 4.355 7.28342L13.265 2.67632C14.72 1.92414 16.52 1.92414 17.99 2.67632L26.9 7.28342C28.355 8.04903 29.255 9.43256 29.255 10.9504Z" stroke="#495C83" stroke-width="3.49215" stroke-linecap="round" stroke-linejoin="round"/>
<path d="M15.6351 14.2009C17.5654 14.2009 19.1301 12.7996 19.1301 11.0712C19.1301 9.34276 17.5654 7.94165 15.6351 7.94165C13.7049 7.94165 12.1401 9.34276 12.1401 11.0712C12.1401 12.7996 13.7049 14.2009 15.6351 14.2009Z" stroke="#495C83" stroke-width="3.49215" stroke-linecap="round" stroke-linejoin="round"/>
<path d="M21.6353 21.8035C21.6353 19.3857 18.9503 17.4247 15.6353 17.4247C12.3203 17.4247 9.63525 19.3857 9.63525 21.8035" stroke="#495C83" stroke-width="3.49215" stroke-linecap="round" stroke-linejoin="round"/>
</svg>
