<svg width="30" height="28" viewBox="0 0 30 28" fill="none" xmlns="http://www.w3.org/2000/svg">
<path d="M19.7012 27.1026H19.5113C13.0264 27.1026 9.9008 24.8139 9.36039 19.687C9.30197 19.1508 9.74014 18.6669 10.3536 18.6146C10.9378 18.5623 11.4928 18.9677 11.5512 19.5039C11.9748 23.6106 14.1364 25.1408 19.5259 25.1408H19.7158C25.6603 25.1408 27.7635 23.2575 27.7635 17.9345V9.40717C27.7635 4.08415 25.6603 2.20082 19.7158 2.20082H19.5259C14.1072 2.20082 11.9456 3.75718 11.5512 7.94236C11.4782 8.47858 10.967 8.88402 10.3536 8.83171C9.74014 8.79247 9.30197 8.30856 9.34579 7.77233C9.84238 2.56702 12.9826 0.239014 19.5113 0.239014H19.7012C26.8726 0.239014 29.9397 2.98554 29.9397 9.40717V17.9345C29.9397 24.3561 26.8726 27.1026 19.7012 27.1026Z" fill="#495C83"/>
<path d="M19.3482 14.6517H2.72701C2.12818 14.6517 1.63159 14.2071 1.63159 13.6708C1.63159 13.1346 2.12818 12.6899 2.72701 12.6899H19.3482C19.947 12.6899 20.4436 13.1346 20.4436 13.6708C20.4436 14.2071 19.947 14.6517 19.3482 14.6517Z" fill="#495C83"/>
<path d="M5.98466 19.0332C5.70715 19.0332 5.42964 18.9416 5.21056 18.7454L0.317673 14.3641C-0.105891 13.9848 -0.105891 13.357 0.317673 12.9777L5.21056 8.59635C5.63412 8.21707 6.33519 8.21707 6.75876 8.59635C7.18232 8.97563 7.18232 9.60341 6.75876 9.98269L2.63997 13.6709L6.75876 17.3591C7.18232 17.7384 7.18232 18.3661 6.75876 18.7454C6.55428 18.9416 6.26217 19.0332 5.98466 19.0332Z" fill="#495C83"/>
</svg>
