<svg width="40" height="40" viewBox="0 0 40 40" fill="none" xmlns="http://www.w3.org/2000/svg">
<path d="M4.61671 16.6667C3.90004 16.6667 3.33337 16.1 3.33337 15.3834V11.5334C3.33778 9.35995 4.20312 7.27681 5.73996 5.73996C7.27681 4.20312 9.35995 3.33778 11.5334 3.33337H15.3834C16.1 3.33337 16.6667 3.90004 16.6667 4.61671C16.6667 5.33337 16.1 5.90004 15.3834 5.90004H11.5334C8.41671 5.90004 5.90004 8.43337 5.90004 11.5334V15.3834C5.90004 16.1 5.31671 16.6667 4.61671 16.6667ZM35.3834 16.6667C35.043 16.6667 34.7166 16.5315 34.4759 16.2908C34.2353 16.0502 34.1 15.7237 34.1 15.3834V11.5334C34.1 8.41671 31.5667 5.90004 28.4667 5.90004H24.6167C24.2763 5.90004 23.9499 5.76483 23.7093 5.52416C23.4686 5.28349 23.3334 4.95707 23.3334 4.61671C23.3334 4.27635 23.4686 3.94993 23.7093 3.70925C23.9499 3.46858 24.2763 3.33337 24.6167 3.33337H28.4667C30.6401 3.33778 32.7233 4.20312 34.2601 5.73996C35.797 7.27681 36.6623 9.35995 36.6667 11.5334V15.3834C36.6667 16.1 36.1 16.6667 35.3834 16.6667ZM28.47 36.6667H26.1534C25.813 36.6667 25.4866 36.5315 25.2459 36.2908C25.0052 36.0502 24.87 35.7237 24.87 35.3834C24.87 35.043 25.0052 34.7166 25.2459 34.4759C25.4866 34.2352 25.813 34.1 26.1534 34.1H28.47C31.5867 34.1 34.1034 31.5667 34.1034 28.4667V26.1667C34.1034 25.8263 34.2386 25.4999 34.4793 25.2593C34.7199 25.0186 35.0463 24.8834 35.3867 24.8834C35.7271 24.8834 36.0535 25.0186 36.2942 25.2593C36.5348 25.4999 36.67 25.8263 36.67 26.1667V28.4667C36.6656 30.6401 35.8003 32.7233 34.2635 34.2601C32.7266 35.797 30.6435 36.6623 28.47 36.6667ZM15.3834 36.6667H11.5334C9.35995 36.6623 7.27681 35.797 5.73996 34.2601C4.20312 32.7233 3.33778 30.6401 3.33337 28.4667V24.6167C3.33337 23.9 3.90004 23.3334 4.61671 23.3334C5.33337 23.3334 5.90004 23.9 5.90004 24.6167V28.4667C5.90004 31.5834 8.43337 34.1 11.5334 34.1H15.3834C15.7237 34.1 16.0502 34.2352 16.2908 34.4759C16.5315 34.7166 16.6667 35.043 16.6667 35.3834C16.6667 35.7237 16.5315 36.0502 16.2908 36.2908C16.0502 36.5315 15.7237 36.6667 15.3834 36.6667ZM30.7667 18.7167H9.23337C8.89301 18.7167 8.56659 18.8519 8.32592 19.0926C8.08525 19.3333 7.95004 19.6597 7.95004 20C7.95004 20.3404 8.08525 20.6668 8.32592 20.9075C8.56659 21.1482 8.89301 21.2834 9.23337 21.2834H30.7667C31.1071 21.2834 31.4335 21.1482 31.6742 20.9075C31.9148 20.6668 32.05 20.3404 32.05 20C32.05 19.6597 31.9148 19.3333 31.6742 19.0926C31.4335 18.8519 31.1071 18.7167 30.7667 18.7167ZM11.4967 23.2334V23.7834C11.4967 26.55 13.73 28.7834 16.4967 28.7834H23.4967C26.2634 28.7834 28.4967 26.55 28.4967 23.7834V23.2334C28.4967 23.0334 28.3467 22.8834 28.1467 22.8834H11.8467C11.6467 22.8834 11.4967 23.0334 11.4967 23.2334ZM11.4967 16.7667V16.2167C11.4967 13.45 13.73 11.2167 16.4967 11.2167H23.4967C26.2634 11.2167 28.4967 13.45 28.4967 16.2167V16.7667C28.4967 16.9667 28.3467 17.1167 28.1467 17.1167H11.8467C11.6467 17.1167 11.4967 16.9667 11.4967 16.7667Z" fill="#495C83"/>
</svg>
