<svg width="40" height="40" viewBox="0 0 40 40" fill="none" xmlns="http://www.w3.org/2000/svg">
<path d="M13.3333 9.58337C12.65 9.58337 12.0833 9.01671 12.0833 8.33337V3.33337C12.0833 2.65004 12.65 2.08337 13.3333 2.08337C14.0166 2.08337 14.5833 2.65004 14.5833 3.33337V8.33337C14.5833 9.01671 14.0166 9.58337 13.3333 9.58337ZM26.6666 9.58337C25.9833 9.58337 25.4166 9.01671 25.4166 8.33337V3.33337C25.4166 2.65004 25.9833 2.08337 26.6666 2.08337C27.35 2.08337 27.9166 2.65004 27.9166 3.33337V8.33337C27.9166 9.01671 27.35 9.58337 26.6666 9.58337ZM25 19.5834H11.6666C10.9833 19.5834 10.4166 19.0167 10.4166 18.3334C10.4166 17.65 10.9833 17.0834 11.6666 17.0834H25C25.6833 17.0834 26.25 17.65 26.25 18.3334C26.25 19.0167 25.6833 19.5834 25 19.5834ZM20 26.25H11.6666C10.9833 26.25 10.4166 25.6834 10.4166 25C10.4166 24.3167 10.9833 23.75 11.6666 23.75H20C20.6833 23.75 21.25 24.3167 21.25 25C21.25 25.6834 20.6833 26.25 20 26.25Z" fill="#495C83"/>
<path d="M25 37.9167H15C5.63333 37.9167 3.75 33.5 3.75 26.3667V16.0834C3.75 8.18337 6.41667 4.96671 13.2667 4.58337H26.6667C33.5833 4.96671 36.25 8.18337 36.25 16.0834V26.6667C36.25 27.35 35.6833 27.9167 35 27.9167C34.3167 27.9167 33.75 27.35 33.75 26.6667V16.0834C33.75 8.81671 31.3333 7.35004 26.6 7.08337H13.3333C8.66667 7.35004 6.25 8.81671 6.25 16.0834V26.3667C6.25 32.75 7.46667 35.4167 15 35.4167H25C25.6833 35.4167 26.25 35.9834 26.25 36.6667C26.25 37.35 25.6833 37.9167 25 37.9167Z" fill="#495C83"/>
<path d="M25 37.9166C24.6689 37.9153 24.3517 37.7832 24.1176 37.5491C23.8834 37.3149 23.7513 36.9977 23.75 36.6666V31.6666C23.75 27.6333 25.9667 25.4166 30 25.4166H35C35.5 25.4166 35.9667 25.7166 36.15 26.1833C36.35 26.65 36.2333 27.1833 35.8833 27.55L25.8833 37.55C25.6491 37.7844 25.3314 37.9163 25 37.9166ZM30 27.9166C27.3667 27.9166 26.25 29.0333 26.25 31.6666V33.65L31.9833 27.9166H30Z" fill="#495C83"/>
</svg>
