<svg width="40" height="40" viewBox="0 0 40 40" fill="none" xmlns="http://www.w3.org/2000/svg">
<circle cx="20" cy="20" r="20" fill="#92B4EC" fill-opacity="0.17"/>
<path d="M29.67 14.95C29.03 12.78 27.22 10.97 25.05 10.33C23.4 9.85003 22.26 9.89003 21.47 10.48C20.52 11.19 20.41 12.47 20.41 13.38V15.87C20.41 18.33 21.53 19.58 23.73 19.58H26.6C27.5 19.58 28.79 19.47 29.5 18.52C30.11 17.74 30.16 16.6 29.67 14.95Z" fill="#92B4EC"/>
<path d="M26.91 21.361C26.65 21.061 26.27 20.891 25.88 20.891H22.3C20.54 20.891 19.11 19.461 19.11 17.701V14.121C19.11 13.731 18.94 13.351 18.64 13.091C18.35 12.831 17.95 12.711 17.57 12.761C15.22 13.061 13.06 14.351 11.65 16.291C10.23 18.241 9.71002 20.621 10.16 23.001C10.81 26.441 13.56 29.191 17.01 29.841C17.56 29.951 18.11 30.001 18.66 30.001C20.47 30.001 22.22 29.441 23.71 28.351C25.65 26.941 26.94 24.781 27.24 22.431C27.29 22.041 27.17 21.651 26.91 21.361Z" fill="#92B4EC"/>
</svg>
