<svg width="40" height="40" viewBox="0 0 40 40" fill="none" xmlns="http://www.w3.org/2000/svg">
<circle cx="20" cy="20" r="20" fill="#579BB1" fill-opacity="0.17"/>
<path d="M29.81 11.938C28.5 15.208 25.51 19.478 22.66 22.268C22.4574 21.0073 21.8555 19.845 20.9428 18.9521C20.03 18.0592 18.8548 17.4829 17.59 17.308C20.39 14.448 24.69 11.418 27.97 10.098C28.55 9.87801 29.13 10.048 29.49 10.408C29.87 10.788 30.05 11.358 29.81 11.938Z" fill="#579BB1"/>
<path d="M21.78 23.09C21.58 23.26 21.38 23.43 21.18 23.59L19.39 25.02C19.39 24.99 19.38 24.95 19.38 24.91C19.24 23.84 18.74 22.85 17.93 22.04C17.1357 21.2342 16.0928 20.7198 14.97 20.58C14.94 20.58 14.9 20.57 14.87 20.57L16.32 18.74C16.46 18.56 16.61 18.39 16.77 18.21L17.45 18.3C19.6 18.6 21.33 20.29 21.67 22.43L21.78 23.09Z" fill="#579BB1"/>
<path d="M18.43 25.6199C18.43 26.7199 18.01 27.7699 17.21 28.5599C16.6 29.1799 15.78 29.5999 14.78 29.7199L12.33 29.9899C10.99 30.1399 9.84001 28.9899 9.99001 27.6399L10.26 25.1799C10.5 22.9899 12.33 21.5899 14.27 21.5499C14.46 21.5399 14.67 21.5499 14.87 21.5699C15.72 21.6799 16.54 22.0699 17.23 22.7499C17.9 23.4199 18.28 24.2099 18.39 25.0399C18.41 25.2399 18.43 25.4299 18.43 25.6199Z" fill="#579BB1"/>
</svg>
