<svg width="40" height="40" viewBox="0 0 40 40" fill="none" xmlns="http://www.w3.org/2000/svg">
<path d="M34.3167 36.6667C34.3167 30.2167 27.9 25 20 25C12.1 25 5.68335 30.2167 5.68335 36.6667M20 20C22.2102 20 24.3298 19.1221 25.8926 17.5593C27.4554 15.9965 28.3333 13.8768 28.3333 11.6667C28.3333 9.45657 27.4554 7.33695 25.8926 5.77415C24.3298 4.21135 22.2102 3.33337 20 3.33337C17.7899 3.33337 15.6703 4.21135 14.1075 5.77415C12.5447 7.33695 11.6667 9.45657 11.6667 11.6667C11.6667 13.8768 12.5447 15.9965 14.1075 17.5593C15.6703 19.1221 17.7899 20 20 20Z" stroke="#495C83" stroke-width="1.5" stroke-linecap="round" stroke-linejoin="round"/>
</svg>
